<?xml version="1.0" encoding="utf-8"?>
<!-- Generator: Adobe Illustrator 15.1.0, SVG Export Plug-In . SVG Version: 6.00 Build 0)  -->
<!DOCTYPE svg PUBLIC "-//W3C//DTD SVG 1.1//EN" "http://www.w3.org/Graphics/SVG/1.1/DTD/svg11.dtd">
<svg version="1.1" id="レイヤー_1" xmlns="http://www.w3.org/2000/svg" xmlns:xlink="http://www.w3.org/1999/xlink" x="0px"
	 y="0px" width="100px" height="100px" viewBox="-0.487 0 100.974 101" enable-background="new -0.487 0 100.974 101"
	 xml:space="preserve">
<g id="レイヤー_3" display="none">
	<rect x="6" y="5" display="inline" width="87" height="87"/>
</g>
<path d="M36.039,71.535c1.726-0.503,3.726-4.368,3.942-13.535H23.298c0.708,2.469,1.774,4.828,3.188,7.049
	C28.727,68.568,33.573,72.254,36.039,71.535z"/>
<path d="M79.387,69.346c-2.967,4.66-9.434,10.264-15.793,10.264c-0.949,0-1.896-0.125-2.83-0.396C54.284,77.326,51,69.628,51,56.333
	V50h49.487C100.218,22.34,77.723,0,50,0C22.277,0-0.218,22.341-0.487,50H48v6.333c0,13.306-3.271,21.003-9.724,22.883
	c-0.965,0.281-1.938,0.41-2.903,0.41c-6.562,0-12.871-5.938-15.634-10.28C17.49,65.814,15.92,62.011,15.052,58H0.058
	c3.623,24.333,24.6,43,49.942,43s46.318-18.667,49.941-43h-15.76C83.303,61.915,81.699,65.718,79.387,69.346z M23.851,42h-8.315
	C19.355,26.518,33.355,15,50,15c16.646,0,30.645,11.518,34.463,27h-8.314C72.561,30.985,62.197,23,50,23
	C37.803,23,27.44,30.985,23.851,42z"/>
<path d="M63,71.532c2.462,0.719,7.439-3.029,9.639-6.483c1.455-2.285,2.551-4.645,3.275-7.049H59.02
	C59.238,67.157,61.257,71.023,63,71.532z"/>
</svg>
